<svg width="20" height="20" viewBox="0 0 20 20" fill="none" xmlns="http://www.w3.org/2000/svg">
<circle cx="10" cy="10" r="10" fill="#F9F9FF"/>
<circle cx="10" cy="10" r="9.5" stroke="#5C55E5" stroke-opacity="0.26"/>
<path d="M8.50648 13.2183C8.46963 13.2368 8.42855 13.2452 8.3874 13.2427C8.34625 13.2403 8.30648 13.227 8.2721 13.2042L4.66273 10.6917C4.63178 10.6701 4.60651 10.6414 4.58906 10.6079C4.57161 10.5745 4.5625 10.5373 4.5625 10.4996C4.5625 10.4618 4.57161 10.4246 4.58906 10.3912C4.60651 10.3577 4.63178 10.329 4.66273 10.3074L8.2721 7.79487C8.30648 7.77212 8.34625 7.75884 8.3874 7.75637C8.42855 7.75391 8.46963 7.76233 8.50648 7.78081C8.54425 7.80092 8.5758 7.831 8.5977 7.86777C8.6196 7.90454 8.63101 7.94661 8.6307 7.9894V13.0097C8.63101 13.0525 8.6196 13.0946 8.5977 13.1313C8.5758 13.1681 8.54425 13.1982 8.50648 13.2183ZM10.3604 7.9894V13.0097C10.3601 13.0525 10.3715 13.0946 10.3934 13.1313C10.4153 13.1681 10.4468 13.1982 10.4846 13.2183C10.5215 13.2368 10.5625 13.2452 10.6037 13.2427C10.6448 13.2403 10.6846 13.227 10.719 13.2042L14.3284 10.6917C14.3593 10.6701 14.3846 10.6414 14.402 10.6079C14.4195 10.5745 14.4286 10.5373 14.4286 10.4996C14.4286 10.4618 14.4195 10.4246 14.402 10.3912C14.3846 10.3577 14.3593 10.329 14.3284 10.3074L10.719 7.79487C10.6846 7.77212 10.6448 7.75884 10.6037 7.75637C10.5625 7.75391 10.5215 7.76233 10.4846 7.78081C10.4468 7.80092 10.4153 7.831 10.3934 7.86777C10.3715 7.90454 10.3601 7.94661 10.3604 7.9894Z" fill="#5C55E5"/>
</svg>
