<svg width="28" height="29" viewBox="0 0 28 29" fill="none" xmlns="http://www.w3.org/2000/svg">
<g clip-path="url(#clip0_1_2737)">
<path d="M27.9876 14.5947C27.9876 13.4208 27.8923 12.5641 27.6862 11.6758H14.2812V16.9742H22.1496C21.9911 18.291 21.1344 20.274 19.2307 21.6064L19.204 21.7838L23.4424 25.0673L23.7361 25.0966C26.4329 22.6059 27.9876 18.9414 27.9876 14.5947Z" fill="#4285F4"/>
<path d="M14.278 28.5552C18.1328 28.5552 21.369 27.2861 23.7328 25.0969L19.2275 21.6068C18.0218 22.4476 16.4037 23.0345 14.278 23.0345C10.5024 23.0345 7.29795 20.544 6.15565 17.1016L5.98821 17.1158L1.58107 20.5265L1.52344 20.6867C3.87126 25.3506 8.69387 28.5552 14.278 28.5552Z" fill="#34A853"/>
<path d="M6.1551 17.1011C5.85369 16.2127 5.67926 15.2608 5.67926 14.2773C5.67926 13.2937 5.85369 12.3419 6.13924 11.4535L6.13126 11.2643L1.66889 7.79883L1.52289 7.86827C0.55524 9.80368 0 11.9771 0 14.2773C0 16.5776 0.55524 18.7508 1.52289 20.6862L6.1551 17.1011Z" fill="#FBBC05"/>
<path d="M14.278 5.52057C16.9589 5.52057 18.7674 6.67862 19.7986 7.64638L23.8279 3.71213C21.3533 1.41189 18.1328 0 14.278 0C8.69387 0 3.87126 3.20447 1.52344 7.86839L6.13979 11.4537C7.29795 8.01122 10.5024 5.52057 14.278 5.52057Z" fill="#EB4335"/>
</g>
<defs>
<clipPath id="clip0_1_2737">
<rect width="28" height="28.6533" fill="white"/>
</clipPath>
</defs>
</svg>        
